<svg width="24" height="24" xmlns="http://www.w3.org/2000/svg">
 <!-- Created with Method Draw - http://github.com/duopixel/Method-Draw/ -->
 
 <g>
  <title>Layer 1</title>
  <path stroke="#aaffff" fill="#0ffff" stroke-width="1.5" fill-opacity="0" d="m23.23679,20.19086l-6.03135,-5.99328c0.81252,-1.33138 1.28905,-2.88899 1.28989,-4.55931c-0.00085,-4.87218 -3.97124,-8.81837 -8.87183,-8.82005c-4.90142,0.00168 -8.87351,3.94788 -8.87351,8.81921c0,4.86882 3.97209,8.815 8.87351,8.815c1.68176,0 3.24928,-0.47351 4.5891,-1.28091l6.03305,5.99414l2.99113,-2.97478l0.00001,0l0.00001,-0.00002zm-19.10208,-10.55344c0.00508,-3.01262 2.45706,-5.4483 5.48796,-5.45503c3.02921,0.00673 5.48289,2.4424 5.48796,5.45503c-0.00593,3.01094 -2.45875,5.44661 -5.48796,5.45335c-3.03091,-0.00673 -5.48289,-2.4424 -5.48796,-5.45335z" id="svg_1"/>
 </g>
</svg>