<svg width="24" height="24" viewBox="0 0 24 24" fill="none" xmlns="http://www.w3.org/2000/svg">
	<path fill-rule="evenodd" clip-rule="evenodd" d="M14.2082 2.35254C14.0134 2.15766 13.6977 2.15706 13.5022 2.3512L12.3926 3.45307L11.2836 2.35133C11.0881 2.15713 10.7723 2.1577 10.5775 2.35261L10.3883 2.54201C10.1931 2.73727 10.1931 3.05372 10.3883 3.24895L11.7558 4.61689V10.8956L6.32333 7.76135L5.82515 5.88653C5.75422 5.61959 5.48028 5.46073 5.21336 5.53174L4.94474 5.60321C4.67833 5.67409 4.51956 5.94723 4.5898 6.21381L4.9897 7.73135L3.48376 8.13065C3.21666 8.20147 3.05766 8.47552 3.12873 8.74256L3.19976 9.00939C3.27077 9.27616 3.54454 9.4349 3.81134 9.36401L5.68652 8.86573L11.119 12L5.68652 15.1343L3.81139 14.636C3.54457 14.5651 3.27078 14.7239 3.1998 14.9907L3.1287 15.2579C3.05764 15.525 3.21672 15.7991 3.48387 15.8698L4.9897 16.2687L4.58982 17.7866C4.51957 18.0532 4.67846 18.3264 4.94497 18.3972L5.21352 18.4685C5.48038 18.5394 5.75419 18.3805 5.8251 18.1137L6.32333 16.2386L11.7558 13.1044V19.3831L10.3883 20.7511C10.1931 20.9463 10.1931 21.2627 10.3883 21.458L10.5775 21.6474C10.7723 21.8423 11.0881 21.8429 11.2836 21.6487L12.3926 20.5469L13.5022 21.6488C13.6977 21.8429 14.0134 21.8423 14.2082 21.6475L14.3975 21.458C14.5926 21.2628 14.5926 20.9463 14.3974 20.7511L13.0294 19.3831V13.1044L18.463 16.2386L18.9613 18.1137C19.0322 18.3805 19.306 18.5394 19.5729 18.4685L19.8413 18.3972C20.1078 18.3264 20.2667 18.0532 20.1964 17.7865L19.7961 16.2687L21.3019 15.8698C21.5691 15.7991 21.7282 15.525 21.6571 15.2579L21.586 14.9907C21.515 14.7239 21.2412 14.5651 20.9744 14.636L19.0999 15.1343L13.6663 12L19.0999 8.86573L20.9744 9.36397C21.2413 9.43488 21.515 9.27614 21.5861 9.00936L21.6571 8.74256C21.7281 8.47552 21.5691 8.20147 21.302 8.13065L19.7961 7.73135L20.1964 6.2139C20.2667 5.94729 20.108 5.67407 19.8415 5.60318L19.573 5.53174C19.3061 5.46073 19.0322 5.61959 18.9612 5.88653L18.463 7.76135L13.0294 10.8956V4.61689L14.3974 3.24895C14.5926 3.05373 14.5926 2.73723 14.3975 2.54195L14.2082 2.35254Z" fill="white"/>
</svg>